<svg width="100" height="30" viewBox="0 0 100 30" fill="none" xmlns="http://www.w3.org/2000/svg">
<rect width="100" height="30" rx="15" fill="#F7AB4C"/>
<path d="M53.6328 11.3C54.4128 11.3 55.0495 11.3733 55.5428 11.52C56.0428 11.6667 56.4295 11.9433 56.7028 12.35C56.9828 12.7567 57.1228 13.34 57.1228 14.1C57.1228 14.9133 56.9761 15.5333 56.6828 15.96C56.3895 16.38 55.9961 16.66 55.5028 16.8C55.0095 16.9333 54.3861 17 53.6328 17H51.6328V11.3H53.6328ZM54.9728 15.64C55.0528 15.56 55.1095 15.3533 55.1428 15.02C55.1761 14.6867 55.1928 14.38 55.1928 14.1C55.1928 13.7467 55.1661 13.4667 55.1128 13.26C55.0661 13.0467 54.9795 12.8767 54.8528 12.75C54.6528 12.53 54.3095 12.42 53.8228 12.42C53.7361 12.42 53.6061 12.4267 53.4328 12.44V15.76C53.5461 15.7733 53.7228 15.78 53.9628 15.78C54.2095 15.78 54.4261 15.77 54.6128 15.75C54.8061 15.7233 54.9261 15.6867 54.9728 15.64ZM61.0754 15.75H59.4154L59.1154 17H57.2754L59.1154 11.3H61.4654L63.2254 17H61.3754L61.0754 15.75ZM60.2354 12.53L59.6454 14.64H60.8354L60.2754 12.53H60.2354ZM66.1402 15.18V17H64.3402V15.2L62.4202 11.3H64.2502L65.0102 13.15C65.0902 13.3367 65.1636 13.5333 65.2302 13.74H65.2502C65.3236 13.5133 65.3969 13.31 65.4702 13.13L66.2202 11.3H68.0402L66.1402 15.18ZM77.3227 17H75.6427L75.5127 13.86C75.4927 13.24 75.4693 12.77 75.4427 12.45H75.4127C75.3327 12.7033 75.2393 13.0967 75.1327 13.63L75.0827 13.88L74.3927 17H72.7127L72.1327 14.19L72.0327 13.69C71.8927 13.07 71.796 12.6567 71.7427 12.45H71.7127C71.686 12.7833 71.6627 13.3267 71.6427 14.08C71.636 14.1267 71.6327 14.2 71.6327 14.3L71.5427 17H69.8527L70.0927 11.3H72.9527L73.4427 13.76L73.5627 14.42C73.616 14.2133 73.666 13.9833 73.7127 13.73L74.1727 11.3H77.0927L77.3227 17ZM80.8874 17.13C79.8941 17.13 79.1474 16.8967 78.6474 16.43C78.1541 15.9567 77.9074 15.2 77.9074 14.16C77.9074 13.14 78.1808 12.3967 78.7274 11.93C79.2741 11.4633 79.9974 11.23 80.8974 11.23C82.7908 11.23 83.7374 12.1733 83.7374 14.06C83.7374 15.0133 83.5041 15.7633 83.0374 16.31C82.5774 16.8567 81.8608 17.13 80.8874 17.13ZM80.8474 15.95C81.0341 15.95 81.1908 15.92 81.3174 15.86C81.4441 15.7933 81.5441 15.68 81.6174 15.52C81.7574 15.2467 81.8274 14.8 81.8274 14.18C81.8274 13.5733 81.7574 13.1333 81.6174 12.86C81.4774 12.58 81.2208 12.4333 80.8474 12.42C80.7074 12.42 80.5608 12.4367 80.4074 12.47C80.2608 12.4967 80.1674 12.5367 80.1274 12.59C80.0474 12.6833 79.9841 12.8833 79.9374 13.19C79.8974 13.49 79.8774 13.82 79.8774 14.18C79.8774 14.74 79.9308 15.15 80.0374 15.41C80.1108 15.6033 80.2141 15.7433 80.3474 15.83C80.4808 15.91 80.6474 15.95 80.8474 15.95ZM86.5332 11.3C87.3132 11.3 87.9499 11.3733 88.4432 11.52C88.9432 11.6667 89.3299 11.9433 89.6032 12.35C89.8832 12.7567 90.0232 13.34 90.0232 14.1C90.0232 14.9133 89.8765 15.5333 89.5832 15.96C89.2899 16.38 88.8965 16.66 88.4032 16.8C87.9099 16.9333 87.2865 17 86.5332 17H84.5332V11.3H86.5332ZM87.8732 15.64C87.9532 15.56 88.0099 15.3533 88.0432 15.02C88.0765 14.6867 88.0932 14.38 88.0932 14.1C88.0932 13.7467 88.0665 13.4667 88.0132 13.26C87.9665 13.0467 87.8799 12.8767 87.7532 12.75C87.5532 12.53 87.2099 12.42 86.7232 12.42C86.6365 12.42 86.5065 12.4267 86.3332 12.44V15.76C86.4465 15.7733 86.6232 15.78 86.8632 15.78C87.1099 15.78 87.3265 15.77 87.5132 15.75C87.7065 15.7233 87.8265 15.6867 87.8732 15.64ZM90.7723 11.3H94.9223V12.5H92.5723V13.54H94.5523V14.62H92.5723V15.78H94.9123V17H90.7723V11.3Z" fill="black"/>
</svg>
