<svg width="100" height="30" viewBox="0 0 100 30" fill="none" xmlns="http://www.w3.org/2000/svg">
<rect width="100" height="30" rx="15" fill="#40414F"/>
<path d="M6.68172 14.7V17H5.01172V11.3H6.70172L8.21172 13.6C8.43839 13.94 8.61172 14.2267 8.73172 14.46H8.76172V13.5V11.3H10.4217V17H8.72172L7.17172 14.6L6.72172 13.92H6.69172L6.68172 14.7ZM11.4182 11.3H13.2182V17H11.4182V11.3ZM19.2105 13.84V16.69C18.7638 16.8367 18.3405 16.9433 17.9405 17.01C17.5405 17.0767 17.2038 17.11 16.9305 17.11C16.0238 17.11 15.3138 16.8733 14.8005 16.4C14.2871 15.9267 14.0305 15.2 14.0305 14.22C14.0305 13.22 14.3005 12.4733 14.8405 11.98C15.3805 11.48 16.1405 11.23 17.1205 11.23C17.6338 11.23 18.2505 11.3067 18.9705 11.46C18.9705 11.5933 18.9571 11.7933 18.9305 12.06C18.9038 12.32 18.8771 12.5033 18.8505 12.61L18.4905 12.6C18.0505 12.5867 17.7071 12.58 17.4605 12.58C16.7205 12.58 16.3171 12.6233 16.2505 12.71C16.1438 12.8367 16.0671 13.0333 16.0205 13.3C15.9805 13.5667 15.9605 13.8233 15.9605 14.07C15.9605 14.5167 16.0105 14.8633 16.1105 15.11C16.2105 15.3567 16.3638 15.53 16.5705 15.63C16.7771 15.73 17.0571 15.78 17.4105 15.78H17.4505V13.84H19.2105ZM20.0705 11.3H21.8805V13.39H23.4305V11.3H25.2405V17H23.4305V14.54H21.8805V17H20.0705V11.3ZM29.242 17H27.442V12.55H25.832V11.3H30.852V12.55H29.242V17ZM40.2816 17H38.6016L38.4716 13.86C38.4516 13.24 38.4283 12.77 38.4016 12.45H38.3716C38.2916 12.7033 38.1983 13.0967 38.0916 13.63L38.0416 13.88L37.3516 17H35.6716L35.0916 14.19L34.9916 13.69C34.8516 13.07 34.755 12.6567 34.7016 12.45H34.6716C34.645 12.7833 34.6216 13.3267 34.6016 14.08C34.595 14.1267 34.5916 14.2 34.5916 14.3L34.5016 17H32.8116L33.0516 11.3H35.9116L36.4016 13.76L36.5216 14.42C36.575 14.2133 36.625 13.9833 36.6716 13.73L37.1316 11.3H40.0516L40.2816 17ZM43.8464 17.13C42.8531 17.13 42.1064 16.8967 41.6064 16.43C41.1131 15.9567 40.8664 15.2 40.8664 14.16C40.8664 13.14 41.1397 12.3967 41.6864 11.93C42.2331 11.4633 42.9564 11.23 43.8564 11.23C45.7497 11.23 46.6964 12.1733 46.6964 14.06C46.6964 15.0133 46.4631 15.7633 45.9964 16.31C45.5364 16.8567 44.8197 17.13 43.8464 17.13ZM43.8064 15.95C43.9931 15.95 44.1497 15.92 44.2764 15.86C44.4031 15.7933 44.5031 15.68 44.5764 15.52C44.7164 15.2467 44.7864 14.8 44.7864 14.18C44.7864 13.5733 44.7164 13.1333 44.5764 12.86C44.4364 12.58 44.1797 12.4333 43.8064 12.42C43.6664 12.42 43.5197 12.4367 43.3664 12.47C43.2197 12.4967 43.1264 12.5367 43.0864 12.59C43.0064 12.6833 42.9431 12.8833 42.8964 13.19C42.8564 13.49 42.8364 13.82 42.8364 14.18C42.8364 14.74 42.8897 15.15 42.9964 15.41C43.0697 15.6033 43.1731 15.7433 43.3064 15.83C43.4397 15.91 43.6064 15.95 43.8064 15.95ZM49.4922 11.3C50.2722 11.3 50.9089 11.3733 51.4022 11.52C51.9022 11.6667 52.2889 11.9433 52.5622 12.35C52.8422 12.7567 52.9822 13.34 52.9822 14.1C52.9822 14.9133 52.8355 15.5333 52.5422 15.96C52.2489 16.38 51.8555 16.66 51.3622 16.8C50.8689 16.9333 50.2455 17 49.4922 17H47.4922V11.3H49.4922ZM50.8322 15.64C50.9122 15.56 50.9689 15.3533 51.0022 15.02C51.0355 14.6867 51.0522 14.38 51.0522 14.1C51.0522 13.7467 51.0255 13.4667 50.9722 13.26C50.9255 13.0467 50.8389 12.8767 50.7122 12.75C50.5122 12.53 50.1689 12.42 49.6822 12.42C49.5955 12.42 49.4655 12.4267 49.2922 12.44V15.76C49.4055 15.7733 49.5822 15.78 49.8222 15.78C50.0689 15.78 50.2855 15.77 50.4722 15.75C50.6655 15.7233 50.7855 15.6867 50.8322 15.64ZM53.7313 11.3H57.8813V12.5H55.5313V13.54H57.5113V14.62H55.5313V15.78H57.8713V17H53.7313V11.3Z" fill="#D9D9E3"/>
</svg>
